<mxfile host="65bd71144e">
    <diagram id="1YphVvGN7k-kcuk6cj64" name="Page-1">
        <mxGraphModel dx="1284" dy="779" grid="1" gridSize="10" guides="1" tooltips="1" connect="1" arrows="1" fold="1" page="1" pageScale="1" pageWidth="850" pageHeight="1100" math="0" shadow="0">
            <root>
                <mxCell id="0"/>
                <mxCell id="1" parent="0"/>
                <mxCell id="7" value="Let us build a CAKE SHOP website using&amp;nbsp; react and redux-toolkit, out App will Look Like this..." style="text;html=1;strokeColor=none;fillColor=none;align=center;verticalAlign=middle;whiteSpace=wrap;rounded=0;" vertex="1" parent="1">
                    <mxGeometry x="220" y="30" width="330" height="30" as="geometry"/>
                </mxCell>
                <mxCell id="8" value="" style="shape=image;verticalLabelPosition=bottom;labelBackgroundColor=default;verticalAlign=top;aspect=fixed;imageAspect=0;image=data:image/png,iVBORw0KGgoAAAANSUhEUgAAAbEAAAKKCAYAAACzhWVCAAAAAXNSR0IArs4c6QAAAARnQU1BAACxjwv8YQUAAAAJcEhZcwAADsMAAA7DAcdvqGQAAHX6SURBVHhe7f1/dBPnnTd+vykcO3W1Zr/2CbUftlKSY5F2RdqvlTxfCCzeCCi5EXFXNK7SsDioIeA4uCi3HTnlhkJC4CGxI2+UmjiQkJVjNmwUJ7hRkW8oIGoWAvsQ6WkTLw3KoZFy+5jSY5/iVZ3YB5rnj9GPmdFPG9t4zPt1jk+imdFoZjTMW9fnuqSZVlJS8hWIiIgU6GvyCURERErBECMiIsViiBERkWIxxIiISLEYYkREpFgMMSIiUiyGGBERKRZDjIiIFIshRkREisUQIyIixWKIERGRYjHEiIhIsRhiRESkWAwxIiJSLIYYEREpFkOMiIgUiyFGRESKxRAjIiLFYogREZFiMcSIiEixGGJERKRYDDEiIlIshhgRESkWQ4yIiBSLIUZERIrFECMiIsViiBERkWIxxIiISLEYYkREpFgMMSIiUiyGGBERKRZDjIiIFIshRkREisUQIyIixWKIERGRYjHEiIhIsRhiRESkWAwxIiJSLIYYEREpFkOMiIgUiyFGRESKxRAjIiLFYogREZFiMcSIiEixGGJERKRYDDEiIlIshhgRESkWQ4yIiBSLIUZERIrFECMiIsViiBERkWIxxIiISLEYYkREpFgMMSIiUiyGGBERKda0kpKSr+QTibJlbnKjulQVexzsNMDSIFlk6pm9BNU/rYSxVANVTnRiEB6DBY3SJW+cCjvcG/SIvTMhDwxrJs3WEY0ZhthEkF9QEIZvdznq2iVLxdhavTCqIw/CPrSU18ElW2ayuOlCbLYZ9t3V0M+UzxhhiM0uhfnHq2GcNwfFM1XIiYUhgOFhhPuDOPPueuxMcY5kJD/nboYQu9OItf9sgrFUg4L4pwsMX+lF4KwLjl0dCEiekMJsK/a2mqCdHnl8Mxw7BWM58YZQQb/aDrN8Mk16q59emyTARmZelR1vvdGE6gf00NwqCzAAyMmBqkgL7R2y6ZRapR3u3TasXqSVBBgA5Mwshm6ZFc2uXTDPlsxKyly3NB5gNOkxxG6UmXo8tNMon0qTmgmlavEFMgzfm7VYZTDAkGUrbF69E9t/rEexPLjo+hQXQpUheHJunY+Hnsjwb27BszCJKgs0+THEbqCCBWuxa7l8Kk1eWhSKW2HhCzj7r370iialU/yQHVuWayDJr3AQXf/mwM8eN8BgMMCwuhZbX+vAmU/6Eb4mXpCyEf5DF/bbIx8sVtei5WQvhkXzC3RLYBI9liqF7bH5KJZPpkmNIXZDFWD+I89innwyTUFGbDSL+0WB4dBR7Hjcgm2vd+DsJ5GJPX6cfMuBTY8/iBq7aGFKb7gX3f/+M5Q/ug37fhX5YNHjh2trBz4Oi5abWQit6KFY8RPVWHo7m8hKw4EdE0HWyd5/qRcFRfHPe70nfoZVz56NPU45sEO2nrC/BeW1oiEf9U54l2tiD8Xzkw3A2PRhNZ56zAh9kTB9+EoQXa07sfNgAJhtwuafV2J+SYFQprkWRv9/HcUrLzhwrCe2muTr/WQznv3n+dDeGpk+HEbQ70HLz1oQ38u44lIzHq16CPNvL4iP9hsOI9h9FB12BzrSvt4qdEzfhbVLNFBNH8nAEi1MdY/DtGguilU5yImWoobD6P3Eh2O/fBX7jkXbWDY4vUbEj2yihPdC7ifNOPyILt4KGw7A9eh6tIj2LZ3iUjPMD5Vh3re1KJRtb9DvQdsvWiTvi/xckQxOWPAs3tpZJmpxDCPwjgXrX4ns7+xSmB+pxkMLRAMkrg0j3PMxjr73Ihy/lLU97zTBVmVC2beLofp6fPnhcB8Cp/ejpsEjXX5CLcGud7dgfkHk4bUAXEvXo0W2FGZXY+8bZmhzAFwLIvgnDTRFkXkc2DGpsSV2A/y334GuS/HHxYus2LxAvMT4yymyo3mTORZgAJAzU4OlG5/Hrn8yw77biqV3RgIMAKarUHCXCfXP2VAae0ainCI79j65NB5gAJCjgmaeGdtbbQmtznlVzWhurBZeS/whOEcFTakJ1lf3wprm2OR8exeqlwkBlrUF1Wh+dy+sD+ihmSkKBAivW3xXGVZv2Yu9P5Vv7eitvUcrKSOGu49mHWCAGU9tr4Zpng7FSbZXM8+MLbvtWQ1aAObh2Z+KAwwI+/dhWzTAFlSj+eUmVC+TDZCYngOVWg/Tk7LjssAG58tW4esG0QCLLJ8zsxg6nS4+7UZYvhRzogEGAJeCOCN6KCiF7TmTEGAA+s+60C2uQdKkxhC7Ic5i25tn0B99OL0YS5/YnHCBH0/FpXoUJL3wF2D+T5MNIRfk3D4f5mXyqXHFpdKSmViO2oi1PxVdPpfvQv2PdSm2I0KlhakqdXAW3y7rY8rIDHu9GTrxhS0pFbQ/3AJ7hXz6aBSjaKZ0K/t60rTaRmOmHg/9NMOgBQDzNllRFm1hAEDPUeyodUX69YzYVZfp2Kig/adq2O4BgGLYqozQjOwNmDh3roa9aj7iuzOMwOk34JcsBMyrt8bLiFd8eHvzjWw50kgxxG6Uzk3YdzoWY8DsMlTXT2CMDQdxtGE9DIb12OcXdxoAmA6EP3Fhx2oDVu1wISCZXYDiu8SP5cLofq8R6w0GGB534GhI+pFWe8/qSCugGNYfSi8wvSdbULvaAMPjjej4RPSi6nTBOYzek47I6zXC9R/y+VKlW0zSgA4HcfTVyECAxxvR8V/inVVBX25DMRphMRhgMHgQFM1F2IcWgzAgI20pEYtQIPlQEEafZEWZDYf7ETjbgX27fibsq8GA9Zv3o1u0uQXaRVgifpLcgs2wLhF9iBgOwvPKzliJt/inpnjZDcBwTxdaalfBYFiPxvcCiL3UdA3mr1wCYBGKxIH3RTf2RwaorKrdin2/6kav7NSaKMVLrNj7ovTrEMOho9gXbXFGSAfbhOE78OKk/U4mJccQu4E8m9+G70r0UQ40S6KfcMdf72kHdnYGAASwv7ZLenFGEF3PCX0svcda0HJO1geSpuXUf3IHan7hEb5U+kkHdv4vDwLiUXYFRVgEADBBd7toek8XGre64O8B8IkHjvc+jrdU0wTn8CcdqNsa+RLrJx54TsuXkFp6h7iQNoxulwU7344MBPjEA8eGNvjEF161DqtFD0dnGJCMNFThb2aJH2fiwqaHH8S2t3tReLcJ1jeccLrcaN5ihk7c7M3JQaHooZQKm59YiuLYexeG741NaBQdL9N3xUMeetH10ja4/L0AAvD84m18LPrMVVCsB9CHYfFnlK/rsPpFJ+x1q6EePIn99hqs2pBNX5IZdrcXXm/in7tppN+mLIZpkxN7t5igFR2b4T94sHVNo7RPdrYZTz0s6qs+3YK6t7Mda0qTBUPshnKhbr8v/gk3R4OlT9hSluPG0vAX4qJKEH3iC3e4D0FRf43/i2w7CML47HeyoRs9vfjvL0SPVYXCAIllahSKw3D2UjSJL2CbxK201MHZe7El6yHugEnacrgWRHeb6DEAwIVLoov12OjApdiHFUGhOnPpL2b2ElhfdeOtpmqYls2H7naN8CVpcR9UJkXzUSbqMwuf2ye7YC+BWnLAi7G0URwoosERiL4fx+A6HZQMYYdKA/0Da/H8q16439gM053imeNtHqp374V1mUb0b2gYvSccsDwqCzDMg+3/E2+pDYc8aGAZUZEYYjda+4toE5Xzcm5fCn3aPgmF+yIstLDyc0bYl6Vsvv8jTcaC7xqxNquBGIC57kmY7oyNSUXw7FF0vLYDO3ZtxdFsB4dc6UOf6KHquyZZq78w8ZdDsuC3W7D1388gKAtpAFDdvhTWFybql2mKYW7aAvPfi5tfveh6yYJVz3Yk+aBTBp3oi+s5aiOeF32Iio0OBgC1UZjeahNNpMmCIXbD9cJlF5ewcqDKsimmmqWVjDIrHckn83GhQqGkXAdggQ63iffni//GZwDQfklyUUXIE/nli+R/2Q2bz6RD2sqaXgh1wpfNV0Nzq+hhNHSv07H/uCBdz9d1MNWtTvmdpbi1KPt2/ACG/W2w/GwnHG8dw7EjYelIxXS+8GO/uA82R4OlPxWPFpW3QIPwrE58H2J/oiHnZ/dsgsVkwPrN+9BxNij9kvZMPZY+IXqclAt15UleI2NfY1zxTzZjrfiXNq74sG/jKmyTfx2AphyG2GTQ48KL4rJiKvIL/+z5eOonpSgGoF35LGwLbvxvDWiW2PHsQ5FtWm5Fc12ZpCzYHziJYwAAH3rFF031UjQ3WWFaEL2sazFv5Vo8++q7aK4TLXedjl4UX9QKML+qGdYHhO3FnUZYdz8E3ddFi/QEMCZFps6XcfRTaVlWVboWzQeaYVu1CKXRVtmd87BklQ32Vjf21gFAAVSi7VH9XalQoptdCvN2G+aLRxpm4Nm8D2fEOaY2wrotHmPS1qIGS//FDuvKebGg1S4wYe32vXh3d7RFYsauVifsm9bCtECLwOn9cPxsE7Yekfaw5mT5oWz0SvHoEtF38NCLroY67I9+gZymNIbYJNH7trSsmJzswg8V9I804S2vF3s3lk2O3+PLKUbZ45FtqjdJh2tfC+JMezQSjuHlYwFRf0oOCkpNsO7cGynp7MXzG1ejTPxdtTHg/9cO0WAaADN1MNUJ2+t91QaTuByFXnT9qyNJKWo0etHyzD7pawPIKdLBuG47mvZHSlmvPo8t64zQq1WRVpasv/LW+bC+6oV3fxOqFxWPsCTrwabXRV/tAFB83xbYHxI+/Bx75SgCopzNuVUP08bnsTdSYtu70xr5gV3RMgUa6JetFr1vb6FJ9IV7oB/B/5/o4XiYbYROUpotRtnOxEEiwp8TQgRHR5wm//OERKsLeRJanzR5MMQmjV647B3oFg+CSCC/8IuF4fOPzeX2eoSvpAriMAK/bEHjufiU3le2Yd+5sSjWjUCPC3UNHbKvDSRxrR++N7ZhW4bRjiPS40LdBge6epK/g8m5cOx3KY7RFR984ottNjo34e1zsq8RPPyU8EXpnhZse8OH/jH7zcZh9J9+G68ekU8fY/cW4G/k0+imwRCbTHr2Yec73SlCStD7yjY0vONDbzi+1PCfAjj60nrUXUr3zInRd7oWjiNBxDbv2jDCfwrg6Mu1WP8L+Y9O9cJlexDrX/bAFwpLh2tfG8bwlV50H2mB499E08fCaQfWP74D+092o/eK9JgNfyH8jJNjw4Ooa8vq7lMj09OBbavvF/b5D/0Iy0d+RvY74Peg45fCJM/mmsRj+oejcGyog+iHX7LmsrXJWqN6rH2mGsUAet+uw4MbHPD4gwnbNvxFGL0fHUXLS/sjUwI4e044hsPi4BseRjjkg+flGjy4OfpFaqLxwd9OJCIixWJLjIiIFIshRkREisUQIyIixWKIERGRYjHEiIhIsRhiRESkWAwxIiJSLIYYEREpFkOMiIgUiyFGRESKxRAjIiLFYogREZFiMcSIiEixGGJERKRYDDEiIlIshhgRESkWQ4yIiBSLIUZERIrFECMiIsViiBERkWIxxIiISLEYYkREpFgMMSIiUiyGGBERKRZDjIiIFIshRkREisUQIyIixZpWUlLylXwiXZ+//vWvuHr1Kq5du4avvuLhVZJp06Zh+vTpmDFjBr72tfSf8fg+33xGcn7QxOC7MMaGh4fx5Zdf4urVq7ywKdBXX32Fq1ev4ssvv8Tw8LB8dgzf55tTtucHTRyG2BgaGhrC1atX5ZNJoa5evYqhoSH5ZL7PBKQ5P2hiMcTGyPDwMK5duyafTAp37do1ySduvs8kJj8/aOIxxMZAtG+EpqarV6/ir3/9K99nSip6ftCNwRAbA7ywTX1Xr17l+0wp8dy4cRhiY4Dlpanv2rVrfJ8pJZ4bNw5DbAxwdNrU99VXX/F9ppR4btw4DDEiIlIshhgRESkWQ4yIiBSLIUZERIrFECMiIsViiBERkWIxxIiISLEYYkREpFgMsZvSizjR04Oe8y5UyWdNGlVwne9BT88JvCifRZPEjTyPeH6QgCE2yc199EW4fnMeF4M96OkR/s6fO4zmR+fKF51k5sLS4MKJjy7GtrunpwcXP3Jho3zRm9iLv4kfm9jfeT/e37USavnCU8n3LHjxnRM4f1G038GLOP8Ozw4aGYbYJLa46QTef+5hLCzJR+7gZQR+H0Cofwj5xXOx8rn38cHuh+VPmRxuq0Lbufex858XQluQi4HeAAK/DyDw+QDwjVlT++I8SgOfRY7Rp5cxlD8Ldz9ix5sNC+WLjc6Tr+GDjy7Cf2Di20vJqKvb4D+4Ew8v0CJ/+gAufyrse2gAyC3g2UEjwxCbrL7/GnY+pEUuBnCq8X7M/k4p7ltyH+696w7cu8mD0FAu1KZ6tD0kf+KNpsbWvU9jcXEuhj7zYLNxNr5zz324b8l9uG/+d3DHHffhKflTbnoD+MgZOUb/WIrHOi8DyIV23kr5gqOj1kJdkItbZshn3AC3bcVrtsWYlTuEUOdm3K/5Dkr/Udj3e++6A3cs4dlBI8MQm6Sq1v8D1AAuH98O80sfS+aF3lyHpzpDAGZh4eqnhYlNJ4RSo6cNhz8SyjMnmgBAjZW73of/QqRkc9GP97fMlKxPMBcWh6i8EzyPD97ZisXR2SnXL1OxEyt1ucDAKbzwz+vg/K18gbiHn5OVG89/ANeW2CsmWNx0Ahd7enDxXBuqbhOmzX20WbKO82dc2Pp9+TOV5fjAFfkk4LaV2PrOBzgfLStfPI8TDku8Vfv9rWgTl50vnofryUi58iEtACB/wVbhGL0TaZHdthJb26QlvfPnDqP5EWlrSG3aCtcZ6brf3yJZJEKNqnfOC+s5sjN+7oisfGYl5uYCA6dfwEOPOSE9s8Uexk5ZuTHTe5t4fmQ4p2lKYIhNSgtxz7fyAVzGx788IJ8JADj19scIAcj9u7kQf17P/95C5B6vwb2zZ+O+WkD9zGuwP3I3ZuUOIHDaA8+HV6BdZ4RwWYtSo+qdd7CzQgv84TgOth/E8U8B9YIq7JaVoOTrl1MvKsEsAJfPHsCez+Rzpe5ecA9mXj4HT/tBHDwewEC+Ggurd6K5TL4koK52YfdDWuT2n8ILFZXY85kw7Z3nVkI7I4TjkXXgWwtR1XQjBhqMFTWe1gohMtQfikxbjBdb7aha8E382efBwXYPPuzPhbZia6Tk+DDaGqqwuAT4438K80/1ArPUwIedB3HQd1lY36fCe/ve8Y/j61ysRe6Vj3G8/SCO//YycovnYuUzb+LFaFisa8MvHVVY+K1cXPn0FDztHpz6HMjNj8wXWdz0Jp5ekI+hTw9gw7LNOC5fAGos0c4CcBnn3t6D6N4ldzcW3j0Tf/zQI5yPvx9A/rcWouqZZiQrsiaeH9mf06RsDLFJaS5mzgSAK/hju3xeRNcVDAHALbmYJZ7++TFsth6MXCAW4uf/Yy5yMYQPm+/HfT9ah3U/ug/3N38oPDeqrB6WBflAtxP3L6lEjbUGlUuc+PAvQP7dKxBp6wkk60+0/P/1twCAK/0H5bMSvLz2PpQuMWOdtQY1lffB6RsCoIZW/lH5+y/iTdtC5A8FcKDWHAnHhahfvRD5Vz+Gc/l9qBSvo+AerLDJ1jGp5eMuywmcOHYCJ84cxkZ9LnD5FF74ny8Ls598Ej8sycXl45tx78p1qLGuww9qjyGEXGjLLFiIu/GtWQD+EkLnDmG+eeH9eORl4MDzNagJCC27ocv/gRprDTa3nIqtE5978Fjp/ai01qDSWIrNxy8DuVqsWF8FYCGaLYsxa8YQAm8/Fnmv1sH8j9/B/fXSPYA4RNY8lSTAAGA5ZhUg/Xkd8zIeWVyK+360TnI+4u+0WCJfNNn5MZJzmhSNITYpXcbQlwAwE9+skM+LKJuJXAC4ckVSkhn4/BxOxR6thPZbAAbO4VBjPHZCjRekIfTAXKEspbPgg9gouY24+xsAvpGPW0WLStef6PJfvgQA5H4j2edlqfzFG+HynID//EVcvNgjXLwh/5T/Taxoehja3AGcanwET/06On0l5t4GYMZcWE7FS07COnKRXyxex+SXf5sW2m9rof1WPoZ+74S5NBrWgGWeFrkAZi1+MbafPQeMwns2cybm4mV0/ucA8I25qHr/Is7/xoUXH81HKE1LOLrO0NnnJIFzoCuAAQD5s7QAlkD7dwD+8jE6a5PHEgBg+l14Uh4iSUXP61zMTNLalsrH4idcOPwbP85fuIiLwcj5OCMX0kZgivNjBOc0KRtDbFI6iP/vZ0MAZqHk+/JmiWDxPwv/SDOFSlYiHf4Dvj2osdbI/rbDKV8+jYPdn2MIgPr/eRxpx06uc+Gd5x7GwttzEejy4L29m7HHNyBfCsCX+GP/EIBczNKWyGcCAx9iT8I212B7q3zByWwAp56ZjdnGp3Dw0yHkftuC19+pivV35Uben9CvEvezxuZAJ0J4YeX9MO84gFOfDSG/ZCEefu59nGhKfu5kL1947Wtf4s/yWWLX/ow//gVA7jehLkk3uvAgPv4/Qmv7nkfTnh2oOvAOdv7zQqhnBPAfne9hz7N78GGy0yPV+TGG5zRNbgyxSerlfz+FywDUD+yG60npd8LmPvoadn5fDSCE/9i7RzJP6mNc7geQr8U/iEYxqp+7S9ondvpzXAaQXzIXs84dxMF28d/xNJ3vSTQewKnLAGYtxlb3VqyMDMCQq1p2F/IBBDrvhbmqBk89fxz5+Uk6WnAF59a8gFP9udA+9LrownwKn18W9m3urR/KtvkgjqcZUDJp/fYAata8gFP9QP6Cp2ND7Pd0C+1m9dwluCLbz4O/OoUQ5mLu90I41fIUzP/4Hdy76RQuIxdaw08k/aVizk8i67ynXjLQYfE8LfIBXA59KDrG92CFLV04fY4DtQcQGMrHwi2H4apOvewL+4Xzetb3t+L9Z1J9F64KS/7vfAABHFpoxjrrU3jheD6Snh6pzo+xPKdpUmOITVZvV6Lu7QCGkI+FtsO4+NEHOHHsBD746CIOP2eEOncIgbc3Y12svJaMEwc/vAxgFhbv8uNwWzNee+cDHK7QSvvE2l/Fsd8PAfkLsbXzBFx7mtHsaMP7Z87jcIN4wWwcQGX9AQSGgHx9FZp/cxHnz0T6e86dx8WLwi8sRMuOWsNhvOZoRtuxw/jht+TrivhsD8y1BxAYyoX2od2Ri+RBvPrryPH52WGceOc1NDua0XbwA5w/ouDfcPhsD8wvn8IAcqGt2CkMsHjmPZzqF0YTvu4/jDZHM5r3uHDi3AdoWwcAFjQfFN7fZkczdq65C7MADPUGcBAAegcwBCD/7sfx/h4X3n+9CnjGCU+vdJ1tHj9eXz4LGPoYB39+AMBBbP7lxxhCLu5+8gT8nrbU58Wvn8IjjacwgHwstIkGhsiJzuu71zXjg4vn8cEx4fzwn7+Ii8deFJUdtVjieQ3NjjaccP8Q6qvylUUkOz/G9JymyYwhNokdr70PP/j5QXzcOwDkq6H9thbqfGCg92Mc/PkPcF+6foqIA5Y67DkdwtD0WZi7eCWM3x7CsV0e2cCMU3hqbR2c/3kZA3laLHxgJVZWLMbcb/wRgYBkwez8+inct3IzDv72Mgau5SL/W5H+noJcDH3+MQIADj7jgOfTAWDWXBgrVuKeoffgTF4vEvz6KWzviIa6cJE8Vf8I6t78EJcH86FdYMTKipVY/L2/xR9HtdGTyGtmvNQ1AORq8fAzzViMPTCvfkE4XgVzsbhiJVb+j3vwTfwJgU8AIITP+2/B3MUrhWNQAlz+7UFsf2K7sL7Gl3DgtwNA7izc/cBC3HrtMoADWFchvEdDkXUu1s3E0KfHsafqfmyP9GuFnrkfj7UcR6AfmPW9xcJ5MfPPCCU5xKGWp/DS6ch2N7liX4OQE5/XQ9Pzof62cH7MnD6E0O8DQnj+iweBAWDW94xYaboHQx1OnBuUr0kk4fwY43OaJq1pJSUlX8kn0sgMDqb710VEN4O8vDz5JJoAbIkREZFiMcSIiEixGGJERKRYDDEiIlIshhgRESkWQ4yIiBSLITYGpk2bJp9EU8y0adP4PlNKPDduHIbYGJg+fbp8Ek0x06dP5/tMKfHcuHEYYmNgxozJcMtcGk8zZszg+0wp8dy4cRhiY+BrX/saT+IpbMaMGfja177G95mSip4fdGPwyI+RnJwclhSmoOnTpyMnJyf2mO8zicnPD5p4DLExlJuby0/qU8iMGTOQmyvcqFOM7zMhzflBE4shNsZycnJwyy23YMaMGRyxpEDTpk3DjBkzcMstt6T9hM33+eaU7flBE4e/Yk9ERIrFlhgRESkWQ4yIiBSLIUZERIrFECMiIsViiBERkWIxxIiISLEYYkREpFgMMSIiUiyGGBERKRZDjIiIFIshRkREisUQIyIixWKIERGRYjHEiIhIsRhiRESkWAwxIiJSLIYYEREpFkOMiIgUiyFGRESKxRAjIiLFYogREZFiMcSIiEixGGJERKRYDDEiIlIshhgRESkWQ4yIiBSLIUZERIrFECMiIsViiBERkWJNKykp+Uo+kaYGW6sXRnX0URi+3eWoa5cuM+XcacLm/1mJ+bcXQJUTmRb2oaW8Di7ZokSkfDd9iJmb3KguVcUnXPGhxZTqgmeD02uEJvIo7G9BeW3yJSeDmy7EFtjg3GaEJhpeURlDTPq+IuSBYU2jdJGJNLsU5h+vhnHeHBTPVCFHvD/Dwwj3B3Hm3fXYOZXfS4Uo/qdnYX+iDMU52ZxnYsWwvvYWTCXRx0F4DBbcwLNOsVhOlJupR2WjWT6VJr1SbH4iSYApzLwqO956ownVD+ihuVUWYACQkwNVkRbaO2TTaWLNXoLqprfgfDISYCNV8RSWxgKMrgdDLAnVPQ9h13L5VJrclkI7W/RwOIijDethMBhgyPrT8Y01r96J7T/Wj+6iSBNjdinMm/bi3Te2wFxajNG9VfPw7IN6iOo/dB0YYkkVYP5ju2CUT6bJq6IIheLHl7qxszMgnjKpFT9kx5blGulFMRxE17858LPHDUIYr67F1tc6cOaTfoSviRekiWKu247qZVoUjC69AAClddWYXySfSqPFEEulYD5Wb5snn0o0DozYaJZ+Mh8OHcWOxy3Y9noHzn4Smdjjx8m3HNj0+IOosYsWphsjHMawfFoms6tRvUz2YYWuCwd2SAZ29KP3UgGKY5+SetG1eRW2nY4+TjOwo94J7/LY0AAEOw2wNMQeJgwgEc9PNm/Th9V46jEj9EXC9OErQXS17sTOgwFgtgmbf16J+SUFUE0HcC2M/v86ildecOBYT2w1SQd2uAp3oXq5HpqZkX9G4X4ETrdh264O9MafGqNdbsWjP14K/WwVcqYL04bD/Qj6D2Lf1v04K1o28fV24NMFVpi+W4yc6SMYWHKnCbYqE8q+XQzV1+P/3Iev9CLwu2M4uGdffD8r7HBvSF+akb8XibIc2JFqu8L9CHTuQM0r/viys0thfqQaDy3QoCA6TPLaMMI9H+Poey/C8UvR0f5JMw4/ootf2IYDcD26Hi2i9zIl+f6HPFj1Xg52/WQpNDPl+6KF8aePwrxE9P5fEwaK+Nz7sK1N/G4CuNOItT9cgkWlsgEmw2H0/+EM2v5lJzqiAQskHsewDy3lr2J402asvU8jjBa9Fkbv7zzYZ2/BsR5gXpX0fBy+EsSZd3diW5usFT17CdZWPQRjqeh4Ro597+88cGzeB9HRHzfmpnexVgsE/R68vacAlfvl+5uudF2M6tecMJcI2x8M9UKjLo7M48CO0WJLTOK/4f9Fl+hiXoyyJzZjottjOUV2NG8yxwIMAHJmarB04/PY9U9m2HdbsfTOSIABwHQVCu4yof45G0pjz0j0Nwuc2P7j+fELGACoCqBdZsXeJjOi/5wExTBtewvN9SbMV8cDDAByVAXQLlqL7a5dMIv7oWQKjZF+A9FzM5lX1Yx3d1thLNVIggIAcmYWQ7doNba8uhfWBZJZ427eT/fCnWq7VAXQlGjjExZUo/nlJqHsJLrgYnoOVGo9TE/uxd6fxs+qtfdoJZ/Mw91HswuwZHJ02PVEJMDEZpvw7P5m2H4oe/+n50B1qxZlj27Huzul54Dtf9mwelmSASY5KhTcuRTWl52wpX0f/gbz3miGdVkkwCCcq8WlZtQ/U40l9YnnY85MDcoebYK9IjYJmG2GffcWrF4kO57RY//dv4fo6I8rV+2DuL/8QazfKvoglaXSul0wRQIM/Wfg6h5xO46SYIjJnd6G/af7449nL4V108TGWHGpHgVJL/wFmP/TaujlF6iInNvnw7xMPjVKBW1p6jKGqvQhbBQNZil+4llU35e+4zrn1vmorEs1klMFze3p2kdJVNix5ce6FPsuotLCVG9Hqlcea8UP2bHlh9r4h4a0jNhVZ4auQD5dTAXtP1XDdg8AFKNIHCoA+npSf5bPqEiTZIRmMaqfqUbZ7IQZIjkoWFCJp8ThkUmOBsafWGUffkRUWuhvT/6aOSVmbElZVlNBf3917JG5rjLlOa8YC2ywxvY3DN+BTfDIl6FRYYgl4dm8D2dEOVZ8X3WGT5xjLDaybj32+cPSedOB8Ccu7FhtwKodLgQkswtQfJf4scxwL7percUqg/Bcn2gfgQLM/X40FozYuETcOgij+71GrDcYsKq2BV2XYjOg+u5SxC83Mtf60f3ODuH1alvg+Uy+gFgpNpukZcHwH46ipXYVDAYD1jd0oPuKaOZMPYz1xUB7HcoNBhh2+yA5FCGPMBjCkKmUmEmS/qpLPnTYheNoePxn2PerAPoiH6qLf2rCfFGADfd0RfZhPRrfC8S3cboG81cuAbAIBZILdBh9QfHjkRvu6YLjcYPwmv/eBSzfiKXRFgAAXOlGR8N6GAyrUPtqF3pjg0Sk4YHhMIL+o9j/8lbUrhaO5araRhwVt0Bu18EkeigX9u9H7WoDVu04imBCw6MXXS8L57njpKyYfWtJbL2aQvHRF0r8hsixd/xbF4L9CSueXGabYa+Pf/0j7G/Di9mU1SkrDLGkPNh0QHRRzNFg6WPpS3Vjqfe0IzKyLoD9tV2QXtOC6HpO6E/oPdaClnOyf/wpWwvDCLxXh21v+9EL4bl1r5+BOMdUhZHq/rJFmCO+EH/0Nmp+4UEAQK/fhW0nRf0V04tRsjL+UKz/dANqXjkmvJ7fg2Pn5EuIyYbIf9GNtx/dCZdf2L9ApwM1+6VBpfn2atGjcSI7Fug/A8fDdXD8SjiO+OQs9tvXw/IzofVk+q64sNWLrpe2RfYhAM8v3sbHogNeUKwHMAxIRhqq8DezxI9H6IsAOp7eFumrCsDTeRZL/mEO4rswjO53a+DoDADohf/tbTj5B9HzReHRuK4clj1+4I6lWP1zJ5wH3HDutKJMPLJuek7q/sgvutFRuw/+HqD32E50/E76gSz8uw5sOyic5x1bj6H7C9HM6Yh9iApLMqoYZduasXf7WhjzQuh4fRssazal6YeKMze54fV6E//c49mqL5a2JPvPoKXWlbT/mUaHIZZKex3azsX/0eXcvhTWupT/XMfU8BfiLuog+sT/9sN9CIo+Cfu/yPZTaC8Ce2T/dDr78d/ixwVFwj/mkkLRRQ/IuWut9B/9j2Q9EEmDM4zPficbKJDOStkQ+Z5u7Bc/BoD2S+gTP076umNMdiz6f380TRloCdSSMmIxljaKL5hbJK00Yfs7cEncwgRQqL6OL3f8KZDQnzZnluTdhO5R6UXcLP7SbSw8tFj9/Fs4/KoNqx8og/5ODTRFKuR8PSf7Ps5rQ5Lzq+NPkncPfZfE0fPfGErxtYGWw7JWdk4BtItWw9b0Fg4fsKN6ScqC5g03r34X1kYHbQ0H4bGzjDjWGGJpuF5qgy92gcmBZokehSn+oU0J4TACAOK98DSyY1GY+AsbWfD9H0ldFwXfNWJtmgEzIzWiXYgord+MtfOifaLD6P+oC55/c2DHrh3Y/5GsxD3e2uuw/qWjCPwp8QNbTpEe5vpdkf7FyadMJ+r3y9HAuFP0AUI0mhnQwOj1wut1wiaaSpkxxNLpceFFcVnx66osO/eBwiJpgeJvckdxJRlThSiSddoXV2mlnfLhS8Iw5Yt9kk++YX9LrH8p8S/LYfOZHJS1sgrUiV82r9RItnc4LL34jwvZsSi4oyzNaFUXLkk2KQhPpC8p6V9k6Pux/7ggKevi6zqY6laP2Yi7oLQpD9/uJNsS/SuvgwulMJWKLrA9XajZuA2Nr3fg2JFjwPSJP5d7f7kT6833Y1VtI/Yf6UavOM9yov2L6blqyxP3N7bPpFQMsQx6334RbfLBFcnILnYqnRGbl2sBFGPJE80w/f3E/8OXUkG/uhnWyDaVPvQs7D+UDu0O/K5D+J/2T0Wd/YCqtBLOTauxqDQSIbNLsWiVDfZWJ3aNZDRbWkcREJfBCuajercVxshrapdb0fyg6LtUAIK/n4DCTLsfQXFfTVEZtryxGasXRCLmTiPWbnfC+bzwoUXaqtJg6b/YYV05LxZI2gUmrN2+F+/uFn3e7nwZRz+VtjJUpWvRfKAZtlWLUBptld05D0tW2WBvdWNvnWTxtFyfisvIKujXOLFZtN7i0kVYXWeHs3VXpG9IC5W4cl6ggXlJceR7ZhN/Ltt2v4u9z1ux+r5SwO/Bvl012PaGtMSY83VJMZpuIgyxjHrhsrfBlynHZBd+5GiwtH4vvN63sOVHutSd3xNppg6myDY1PS774dKwD0d/Eb3YtaDjrGTIBzTL1mJ701tCGWR/E7avM0KvLkwxRHo0/HjDLb0wqf7eBFvkNffWm6ATj+K71IV9se0dT/vRdiIo+WUG1e1LsXbnXuFYvGrD6kUaFEYOxLFXjiIgWjjnVj1MG5/H3kgJae9Oa+T7TvFlgF60PLNPVLoW5BTpYFy3HU37I+WnV5/HlnVG6GXf28volQ7JaFuoNFgqWu9bTdux9gE9NLHfUjopbVF+XQvTlrfg9e6F7Yc34FxWFUA7z4S125rwVvQ4Pi4eMTqM3k8mZ1uqcU2Sll/0r1M8ZCsIj8EAA7/wPGIMsWz0uPDie90ZfmJGfuEXGQ7C90mmFBxvwwhfSbEHw/04s/9FSUnFs7kBnj+kWH6c9L5dhx3iYeip9Puw75ltkl8LGU9nGzZh3+n+DO9/RE8Ltr3hQ/9I+057XKjb4EBXT1avMkIebLJ7kgxxT6UX+88Gku/vcBC+/8r4Dk2o8Kce7Nsjn0o3C4ZYlnr/dSdc/5X0n3WMZ/PP4DgSlAwJDofOwPWsBWcHxUveCMO4cKABLn9v/Mdjrw0L29dQg01vy1s1Z9H4qAU73uxC4E9hDIsvysPDCP8piDPvteDVsegPEzn7i/VYv2M/uj7qlQ6tvjaM4StB+H7lwPoH67Bf8nNH460Xrs0PouZlD3yhJMci5MPR35yML/12HR7c4IDHH0RYNnp0+Iswej86ipaXEsZeAj0d2Lb6fqx/2QPfH/oTniscg14E/B50/FI6K6PTjbA8ugP7TwbQLx2zjuEvhJ+R6njl1dgHmd5X1mPrv/vQK8qr8CWfcC4PxadNhO5zPgTl5+C1YYT/FEDXmzuwfp1jwj7Q0ORz0/92IhERKRdbYkREpFgMMSIiUiyGGBERKRZDjIiIFIshRkREisUQIyIixWKIERGRYjHEiIhIsRhiRESkWAwxIiJSLIYYEREpFkOMiIgUiyFGRESKxRAjIiLFYogREZFiMcSIiEixGGJERKRYDDEiIlIshhgRESkWQ4yIiBSLIUZERIrFECMiIsViiBERkWIxxIiISLEYYkREpFgMMSIiUiyGGBERKda0kpKSr+QTle6vf/0rrl69imvXruGrr6bc7tE4mjZtGqZPn44ZM2bga19L/xmP5xlNtJGcnzeLKXcUhoeH8eWXX+Lq1au8sNCIffXVV7h69Sq+/PJLDA8Py2fH8DyjGyHb8/NmMqVCbGhoCFevXpVPJhqVq1evYmhoSD6Z5xlNCqnOz5vNlAmx4eFhXLt2TT6Z6Lpcu3ZN8omX5xlNJvLz82Y0JUIs2jdBNB6uXr2Kv/71rzzPaFKKnp83qykRYryw0Hi7evUqzzOatG7mc3NKhBjLOzTerl27xvOMJq2b+dycEiHG0WE03r766iueZzRp3czn5pQIMSIiujkxxIiISLEYYkREpFgMMSIiUiyGGBERKRZDjIiIFIshRkREisUQIyIixWKI3QBV75xHT08PTjTJ5xApyYs40dODnvMuVMlnEU0Qhlg6t63E068fhv/8RfT09Ah/F8/jRNtWrLxNvvAk0XQCPT09OP/OWF9W1Fhpew2Hz53HxWDkWPT04OL5E2iukC9L2XrxN/FjGfs778f7u1ZCLV94KljnwvmeHvT85kX5nOumNj2N1zx+nL8oOpYXz+OEY6V8UZpCGGKp3FYF18FmbFw+F7PygIHPAwh8ehkD0/OhXVyFZvf7eLpM/qSpajF2HjmM5ieNmFucDwyEEPi9cDyGcmdi1v8lX55GauCzQPyY5s/C3Y/Y8WbDQvlio/Pka/jgo4vwHxjrDzaTx+LnDuPw7o0wfm8W8jGA0O+F43l5KBczZ82SL05TCEMsKTWe/sXTWDgLGPr0IGr+8Q58Z/59uO8fS/EdTSX2+AaAgrtRtWXr1Py0LPOw0w6LLh/o/xB7NtyLO+66F/ctiRyPO0phfk3+DBqZAXzkvC92TB/rvAwgF9p5Y9SCUGuhLsjFLTPkM6aIh9pgf3Qu8jGAD1+rwb13fAf3LhGOZ+l37kDpw3vkz6AphCGWzG0bsVyfC1z9GAfW1ODgZ+KZx7G9vAUf/gXI1S3Hz8sAoAqu8z3o6fkALucHQrkt2k/wvY147TdCH1hPTw/O/+a1pMGnNm2F60x8uYsfnUDzI9El06w/K2qsfMaFD0Rl0Yvn38fW6Ny0r70VFsMs4GoIB2t/gO0dIdF6xdJs420rsfWdD3A+Woa8eB4nHJb4cSirEspA0fnBizh/rBmWaMk2ViLdip2e+Hb6D27F4tssaD4mOr6enVgc2yZlOj5wRT4p8zH8/la0/UZU6r14Hq4nI+XKh7QAgPwFWyPHMXLm3LYSW9tOSMpv588dFr33guj5IV73+1ski0SoY/2954+M7H1I+xoZ9n3r2sWYBSDUvgE/eOYgUp6hkW374J02fHChBz095+FaBwBzYXGIjkPwPD54Z6to+x/Gzndkx+mMC1u/H50f7xvc+tzh+Hb638fW76uFdUenfXQYO2PPo7HAEEvmR3OEfyCfnMJmSYBFvYxTnwwBUEMt+ZeqxsK7P8dLP5iN2d8xYw8eRpvzaRhL8jF0+WMcbz+OUP4SWBbki58EfP9FvNlUhYWz/owPf3UQB3/1Ia58Q4uVz7yJFyUlS/n6s1PV9ks0r1sIde4VBE57cPBXpxC6mot8ZPHa1XOhngHgk07U/Fq+5mTk27gYL7baUbXgm/izz4OD7R582J8LbcXWeLnsziW45/YvEeg6KMz/E5D/7ZXY+i8bJWvOv9uCH+aew8HjAQxcBWb9P1XY7X4axm8E4PnVh7g8BOR/z4Kdu8eoDHdDqPG0Vrg8D/VHL8eZjuHDaGuowuIS4I//Kcw/1QvMUgMfdh7EQd9lYX2fHsfB9oN47/jH8XUu1iL3ysc43n4Qx397GbnFc4X3PnqhXdeGXzqqsPBbubjy6Sl42j049TmQKzuFAWBx05t4ekE+hj49gA3LNuO4fIFU0r5Gpn2vwtxvAbj6MTqt2b2iesE9+PyV+zF79ndgfk2Nqnfewc4KLfAH4fgc/xRQL6jC7lj59W4svHsm/vihR5j/+wHkf2shqp5phuRMy7sHlopcnOs4jsAAgFl3o6rpMJ4uz0Xgf3vwYe8QUDAXFvnz6LowxJIpzkcugIErf5TPifnzl0MA5P+Yh/Dhm2a8/NvIQ9vDWDgLwOcePFZ6Pyqtlbi/9DF4Phc/B9j4xA+hzb2M45vuxQ+qalBT9QPU/DoE5Gqx8J/Fp7ts/dkoa4Zl8SxgKIADVaW470frUFNlxn133Y+nsnlt7SzkZzgWUrJtfPJJ/LAkF5ePb8a9K9ehxroOP6g9hhByoS2zCP+Yf/0U/uk79+IHlTWi+UDubf9vSApq/cewYUklairvw2P/W7jA5+cG8NL8H2Bd1Q/wTx0BAIBau0T8LAXIx12WEzhx7AROnDmMjfpc4PIpvPA/XxZmZzyGd+NbswD8JYTOHcJ888L78cjLwIHna1ATEFp2Q5f/AzXWGmxuORVbZ/zcrEGlsRSbj18GcrVYsb4KwEI0WxZj1owhBN5+DKVLzFhnXQfzP34H99dL9wDVLux+SIvc/lN4Yc1T2QdYptfIuO9azMoHMHgFWZ+hPifML30sPCirFz5Udjtx/5JK1FhrULnEiQ//AuTfvQJPAwBexiOLI/92RPPxd1pIzrQZV3Bs432otFbiviqP0CIsyEXg5Xvxg6p1+EHFewggyfPoujDEkhkQAip/5jflc2L+9pZcAEMY6BVPDeFCY/yRRa9FLoDQ2edE/6iP49znA/GFYME/lOQCmIXFTfFyhesB4dP43xbMFS0rXX9WFmuhBjDU3YmnElpSWbx25Fjk3vK3suemIjsG84RjMGvxi7H19xwwCi3dmTMh7N3dePj193HizHlcvHAxPv+WXIi75Af+cC52HE/9RdiuoU9OIXKpR+j8ZQwg4ZOFIuTfpoX221pov5WPod87YS41Y0+kCpD5GL6Mzv8cAL4xF1XvX8T537jw4qP5CCWtIgii65Sem8CBrgAGAOTP0gJYAu3fAfjLx+isTRNL0+/Ck7aFyB8K4EBtfLuzk/41Mu/7AIauAph+C7I+QwMvxB88MFdYl86CD6Lr79mIu78B4Bv5uBUAkI/FT7hw+Dd+nL9wEReDkfkzItWMqIEAzkX/jXVdwRCE/Tr1UmTaZwFcHkjyPLouDLFkjgeET1G33YOnkw2lv+1pLLwzV7hgvyOfGZcb6UgfupaqSg8AucAMAAjBY61Bjeyv7l865U8YmfxcAMDQl3+Wz8nutY+HhFaRbjG2JjsWGUSPQehXieuvsTnQiYV4cZ8dG5fPxcz+c/B0HsAL1sin2Cwk3y+lGcCpZ2ZjtvEpHPx0CLnftuD1d6pifT6Zj2EIL6y8H+YdB3DqsyHklyzEw8+9jxNNI+mVSiZfeO1rXyLtUb72Z/zxLwByvwl1ibQ/LbP0r5F5348h1AvgG3Ox+JmRvjYi5z8w4NuTuH7rdjgBVB14Bzv/eSHUMwL4j873sOfZPfhQ/Dk0nRT7RWOHIZZMVwM6u4eAb9yNqtZm6XfCbluJrb+w4O5vAEO+Tryc5lPnnj8IBQ7t3J2iwRwP4x9KxJ/D9uDjzwFAjbmLruBg+0HJn+d0tpfzFE5/jssA8r+3IkkgZ/HaXc8JxyJ3Liz/9hos35OvI7093cL2q+cuwRXZ+g/+6hRCWIl7vp0LDJzDq8ZK1Fg34+X/a2bWn6qnlN8eQM2aF3CqH8hf8HSszzDzMZyLud8L4VTLUzD/43dw76ZTuIxcaA0/kZZjRZyfRNZ5T71kAMbieVrkA7gc+hDAKXx+GUD+PVhhSxcQn+NA7QEEhvKxcMthuKrTLSuX/jUy7/spPPe/P8YQcjH3kbfx2qPiykUWov8+SuZi1jnZ+tuP42NUYcn/nQ8ggEMLzVhnfQovHM9HPptSkwZDLKkQtq8XLia5JSvR/Jvz8P/mBE78xo/zv2lGlT5f6LP46QvpWwyvHMfHQ0Kp4vApF15ztOGwfycWfkMohUVtf+cUBgCoK16H39OGZkczXnvnBPxn2kYwAjGF9s04GAnkjcf9ONzWjOa29/HBR4fxYlavLToWtxmx09OD8+ei/TfncfGiPzLCK4Vn3sOpfiH8X/cfRpujGc17XDhx7gO0rQMQLQfl3wPLgWY073kfH2y8B0L78Sb02R6YXz6FAeRCW7FTGGCR8Rha0Hww8t46mrFzzV2YBWCoN4CDANA7gCEA+Xc/jvf3uPD+61XAM054eqXrbPP48fryWcDQxzj48wMADmLzL4WAuPvJE5Hzow3vnzmPww2y7f71U3ik8RQGkI+FNtHAkIwyvEbGfQdCz6zDC6cHgFw1jM8dRs95v3B+HvsA5y9k+H5c+6s49vshIH8htnaegGtPs2wfL2PoSwDQYonnNTQ72nDC/UOor8pXRDcKQyyVz/bAXF6DPccDGLiWj1klWmhLZiH/2gACx/egZmUWtf/PtmPdMwcR6Afyb1sIo2kh8j91wvlbaYjhNTN+1OhBoB+Y9b3FWFmxEsa7vwn0BhDpfr4OIWxf9piwH5iFuYtXYmXZXPztX0JCJ3M2ry0+FkNAfnGk/6Y4F0P9n+PjTyQvKLMH5tUvwPPpAFAwF4srVmLl/7gH38SfEPgEALbjhdc+xOWhXKjLVmKl4VZ8+kr25cQp6TUzXuoaAHK1ePiZZizOeAxD+Lz/FuG9rViJxSXA5d8exPYntgvra3wJB347AOTOwt0PLMSt1y4DOIB1FZtx8LeXMRRZ52LdTAx9ehx7qu7H9si5HXrmfjzWclx0fizG3Jl/RkgYQyMRankKL52ObHeTC1UJLf/k0r9Gpn0HgBD2/Oh+1Lx2HIH+ISB/lnB+fluN3GtX8Pkn6f4VncJTa+vg/M/LGMjTYuEDK4XX/8YfEQhACNl/8SAwAMz6nhErTfdgqMOJc4Py9dCNMq2kpOQr+USlGRzkGUVEN7e8vDz5pJsCW2JERKRYDDEiIlIshhgRESkWQ4yIiBSLIUZERIrFECMiIsWaEiE2bdo0+SSiMTVt2jSeZzRp3czn5pQIsenTp8snEY2p6dOn8zyjSetmPjenRIjNmDFVb1lLk8WMGTN4ntGkdTOfm1MixL72ta/d1G8ija8ZM2bga1/7Gs8zmpSi5+fNasrseU5Ozk3dpKbxMX36dOTk5MQe8zyjyUR+ft6MpkyIAUBubi4/KdOYmTFjBnJzE39Pn+cZTQapzs+bzZQKMUQ+Kd9yyy2YMWPGTT1ih0Zn2rRpmDFjBm655Za0n3B5ntGNkO35eTOZEr9iT0REN6cp1xIjIqKbB0OMiIgUiyFGRESKxRAjIiLFYogREZFiMcSIiEixGGJERKRYDDEiIlIshhgRESkWQ4yIiBSLIUZERIrFECMiIsViiBERkWIxxIiISLEYYkREpFgMMSIiUiyGGBERKRZDjIiIFIshRkREisUQIyIixWKIERGRYjHEiIhIsRhiRESkWAwxIiJSLIYYEREpFkOMiIgUiyFGRESKxRAjIiLFYogREZFiTSspKflKPpFo/MyD7Y3tMN6eA1wLI/DLHVj/i7PyhRSgGEue2IjKZXpoZubEpgY7DbA0SBYkonHElhhdJxucXi+80T+3HWb5ImJPrBUCDACmq6BdYoZJvsykVwxz015s+dF8SYAR0cRjiJFyzS6F+ae70HzAjcNv2ORzx0/lZqwtVcmnEtENwBCjifXKPnR8Ehb+/1o/ujtd6JAvkxUbnPubUP3D+dAVqZAzXT5//Ji+q4G4/RX270ftagMMBpYSiSYaQ4wm2Fk4Hi+HwWCAYemDqNmjvP4w7SxxKyyMC6f3wd8jmkREE4YhRkREisXRiXSdbHB6jdBEH4Z9aCmvg0u6UFyFHe4NesTaMiEPDGsaY7O1K2143FSGuUUq5ERrdsPDCPcH0PVmDRo7Za+XRPYjBIux5CeP46HlemgKRCXJ4TD6ey7gjPtVNB4MxJa2tXphVMceJsq07zDD7q6GPrrzCctnOJZ3mmCrMqHs28VQfT1ycK4NYzjch8Dp/ahp8ESXBABol1vx6I+XQj87vm/D4X4E/Qexb+t+iNvA0n0Lw7d7Bz5dYIXpu8XImR6Gb3c56toBzF6CtVUPwViqQYEqXlQdDvej93ceODbvgz82lWj8sSVGk8a8eieaNxqhV4sCDABycqAq0kF3l2ja9ZptwrP7ndjySBm0t8r61HJUKLhdD+PGZry704xi0awbZoENzpetMJZq4gEGANNzkDOzGDqdTrRwMUzb3kJzvQnz1dJ9y1EVQLtoLba7dsE8W/QUmULjFphLi6XHZbYZ9t1bsHqRVhJgiKxX892/h1YylWj8McRocphtQ/Vy6YCJ8VMK23PVKJud6dVyULBgLXbVlcpnTLBi2KqM0GTa3IjiJ55F9X3FaY9lzq3zUVmX6ssQKmhuTxx9aa6rhH6mfCrRjcUQo8nh3iIUih4O/9d+rDcYYDCsQu2z++D5qBfhawDQCIvBAIPBg6BoeYQ8wmCRbEYIVq7F0uh31QBguB++9xqF11tdi5aTvRiOzcyB5r7VMANoXCOs3xOKP1UovQnTDWlLiddjEYoKRA+/6Mb+x4XXXFW7Fft+1Y3eyIBPwIiNS7SiAAujO7Jvq2pb0HUpNgOq7y5Fdfyh1LV+dL+zA6siz/N8BmgKxcHWi67Nq4T9fvxncPxbF4L98aNGNFEYYjQ5DAyLggPI+fvVaGq1w7ZKjfCJ/WjcuAo1dtEC10E+RL735A7U/cKDAAD0+OHaWoej4qBSzcG8laLHE64Pw+KD83UdVr/ohL1uNdSDJ7HfXoNVGyL9issWYY4o8IY/ehs1kX3r9buw7WS8jw/Ti1GSYr/6Tzeg5pVj6AXQ6/fg2DkgLMmoYpRta8be7WthzAuh4/VtsKzZNE4hTpQaQ4wmhyMunPmD9JO8Sq2Hcd3z2HvUDecm05j1t2glLYp+BP9TPhShF8G+WNNGMIHfQ0t0DK7TQUnIQ6WB/oG1eP5VL9xvbIbpzsj0kkKIG205d62N/5qK1wvvj2RHMel+hfHZ7xK/+tBy2AfJUckpgHbRatia3sLhA3ZUL5kUvYd0k2GI0SThR+OjW+E6G4yUDUWmq6BZZkVTY6o+nKnPb7dg67+fQfCKfA6gun0prC9Efu5LNuBiTLXXYf1LRxH4U2LZMKdID3P9Ltjukc8hGl8MMZpEzqLlZxaUL12Pn73WgTN/kLaGVKVp+nBGICBpZRWg8E55C6JU9oXm/0b4M9HDsaIqhlY8QvAeVdrBGGf3bILFZMD6zfvQIQ/7mXosfQLAxT5Jaynsb4n1FSb+RYbNj0DvL3divfl+rKptxP4j3eiV1IA1mL9yiWgC0fhjiNHkULELzlY7Nj9mwrw7Azj7lgObfr5VOohiek78+2VyRTpszrKc1fE7aWlO+4Adz66aJ5QrZ5fCvN2GMnG49Adx9pzo8ai5cKlf/LgY8+vWonS28B2wZ5+cn2I4vxm7Wp2wb1oL0wItAqf3w/GzTdh6RDK0BTkqAO2folcUbqrSSjg3rcai0siaZ5di0Sob7K1O7KqIL5cN2+53sfd5K1bfVwr4Pdi3qwbb3pCWGHO+Lh6eQzT++GVnuk6Zv3wsCMJjsKAx1Zed5dOT+VMXdpi34RgAoBp7j5qhTdKnk/nLzvNga90OozpduydqGN1vWlDzr72xKYlfDM6+RbNk57vYskDca5VG7MvOsi9JJ9WPrl0PYtsRwLjzXdgyvoZ0u7PZp4xf9sYwAv9+P9bvkU8nGj9siZEyDPfjzLuvRgIMAFpw1C8bfJG1s2j8X/twJknfjtQwgkcasFMUYNfr2CtHEUjxsmG/D6N7pWH0n34brx4RHnk2N8AjGyQzEcKferCPAUYTjCFGk8NnZ+H7qBfhL6QX3+Evwgj6PXBsfBCb3pZe4l22HcJAkNFcr3tc2GSugeNXPgT/FMawuH9pOIz+T7qwf4cFll3CMPMx09OCbQ0u+C6JXvOLfgSOOLC+9pJ0BGJMAGfPdaP3yrBsO4cRDvngebkGD252ibbzLBoftWDHm10IJOzbMMJ/CuLMey14NcvWY1T3uSTH6towwn8KoOvNHVi/ziH5KSuiicByIhERKRZbYkREpFgMMSIiUiyGGBERKRZDjIiIFIshRkREisUQIyIixWKIERGRYjHEiIhIsRhiRESkWAwxIiJSLIYYEREpFkOMiIgUiyFGRESKxRAjIiLFYogREZFiMcSIiEixGGJERKRYDDEiIlIshhgRESkWQ4yIiBSLIUZERIrFECMiIsViiBERkWIxxIiISLEYYkREpFgMMSIiUiyGGBERKRZDjIiIFIshRkREisUQIyIixWKIERGRYjHEiIhIsRhiRESkWAwxoptVvRNerxM2+XQiBWGIkaLZWr3wtk7ty7C5yQ2v1yv7Y/gQgSFGNJnZ4PR6Ua29gBaDAQbRnydUiKIK+fJENx+GGNGkZIbdbUShvwWG8jq4ZHMb15Sjrl02kegmNK2kpOQr+USKs1qtWLZsGQDgyJEjcDgc8kXoBrK1emGEB4Y1jfJZggo73Bv0UEUfh6TLmpvcqC6NzUXY34Ly2mhkmGF3V2NOoAVdhdUwqqML+dASC5ZslhHYWr3x+QjDtztNENU74V0OeAwWpNizuAo73Bvm4ELnBcxZrocKwdjzpK8JBDsNsDREHkRfY3cfykTHSLJMpnUkvDaA6OvXO+Fdrok+K7t9IRohtsTSsFqtMJlMyMvLQ15eHkwmE6xWq3wxmqyiF9jd0TJcC3wFRlEfmg3Gwq54mW63DyithrNeuhpVaTV03dF1eBBU6VHZZB7RMrGwjb5WZx/0G9ywpygJ2nQaINQ9gou+CvpFQJvBAEM0LCrs0PW1iF4zCM1y+WtqYFwTfZ4BLf4wNMtF/W1ZrUP82i3whTUwer3wLuqLlEEj06Z43yXdGAyxNKItsEzTaHKylesBf5uoteNC3ckgoNZFLtKNsIhbcO1ncSEMFBZJAwohj6hl0giPPwyVdh4kS6VbpsKOMnUQHvFrNXjgC6swZ4HstUTCfUHJY/kAD3nYBk/Kyo7tdbDEWpUAGroRhAqFd4gXCsPXGn+eq7YLQWigi657xOuIHONk02LHnWjsMMRoijKjqEBoIUlG9cXKW1HC4AlhfjX08cpijDxMkkm7zB2FUCHSOsnwWmKqQum2umrL4y09yRwACKPvonxapDUae00j5HsP9OFSqpJmVMZ1JJPFeonGAEMsjSNHjsgnJZ1Gk1ewM1riE/8J5TahZWMEYsu0wBeWr2GMhH0JIwwNBoOo/00q2BcGCoqkrb0RsrV64ZWUU5OFX3pjsQ6i8cQQS8PhcKCjowODg4MYHBxER0cHB3YohguX+gGNLlUBy4x5WhXC/hbJIIZxcbEPYdUczEvR/5WMq7YLQZUeRlnJMHs26NRAsDPN4JGMxmIdROOLIZaBw+HAihUrsGLFCgaYwjR2BwG1Udp3VGGHs8kcCzlxyc7cVJmxxDcq7WdxIayCfo1d0rKytab7wnIjLJ1BaJZ74ZYNIslOEH2y/j1ba7alwKixWAfR+GKIkfKpjbJfs4iMnmuwREbTieZtKER3pITXuMaDoOi5legap3KiC3XlLfBBj2rRdpb1edKPPmywwGBowQWtrF/Pa4RGMpAkGRfqWoXRltHn6bpHWgoci3UQjS9+T4yIiBSLLTEiIlIshhgRESkWQ4yIiBSLIUZERIrFECMiIsViiBERkWIxxIiISLEYYkREpFgMMSIiUiyGGBERKRZDjIiIFIshRnRdzLC7vfC2pv49+qlB2M/4L+rLHxPdGAwxuomI7+Is+psEAWRucsPrlt6qJabemXoe0U2OIUY3nYS7Pa9Je0OUDFyoK7/edRDRaDHEiIhIsRhiGVitVhw6dAiHDh2C1WqVz6appMIOt9cNe70dbq8XXq8Ttnqn8F/ZovHyn7xvKP7Y1ioqWY55OTDSFycqi8bvYC3fJsRKqZJpFXa4JfsmK7eO+TYTjT2GWBpWqxUmkwl5eXnIy8uDyWRikE15KugXAW0GAwwGCxobuhGEBrpYQACADcZSFYIn6yDcIzqRqrQauu5oydKDoEqPyjEbBGGD01sNfb8nXhLd7UPh8mhIuXA2EIZKOy8eQvU6aADJNPOCOVCF+yJ3arbB6TUColKrp1+PagYZTXIMsTSWLVsmn5R0GimLZnmqFoxAGk6N6A4BGp2oLVavgwZBdDfEJyUIeWCJzW+Exy8LlWRUelTLB514vfAu10gWMzeVQRP2oUXcD9dehzbRa7hOX0BYVYjoM206DcKhoGSaplCFcOAsXNF1SrYZaHT7EFbNwbyK+DSiyYYhRjcd+cAO8YUbCKPvovhx5GKu1sXKbjadBmG/B+mGcoT7hPbNiIR9aBEPOIn+dUrXJQ4fMUlwtV9CX6wFaUZRQRgX3B5cCEen2aBTh3HhtLAWTaEKUBul4blBD5X0JYgmHYZYGkeOHJFPSjqNprj2sykv/pOXqAVZMQ9zcAFn24Uyo0ZnE1qT4Qs42x5/RtjfkhighnLUiZYhmmwYYmk4HA50dHRgcHAQg4OD6OjogMPhkC9GU176i/9EC/YlL01K+7iAxu4gUFAE24I5QKTl5jp9AeGCItiKCiWtuVTrJJrsGGIZOBwOrFixAitWrGCA3cRctV0IqnVw6jRpB3RMBFdtF4IqParFX9KusKNSPtikoRtBlR7GUsRbju2X0KfSw1iqQt+l+F4IpUj54BMbnJPgi+BE6TDE6KYjH9iRbAh9okZ0hzTQqDMM6JgQjbAYPAiK+7A2zMGF3fL+PaGkCEnLMTJNPjClvQ7lu31AabXouJShz52u54/oxptWUlLylXwiERGRErAlRkREisUQIyIixWKIERGRYjHEiIhIsRhiRESkWAwxIiJSLIYYEREpFkOMiIgUiyFGRESKxRAjIiLFYogREZFiMcRI+eqdWf6I7yRW74TX64b9ZriLcoUd7ptlX2ncMcRIEWyt8l+e98JZL1+KMkl2HN2S268QKQtDjCa3CjvcXi/K+mR3He4MorBImRdfc5MbXrddegPKBsvE3UU55Ikfx8jtV/iBgJSKIUaTmA3ODXr0dRpQXiu7DWWDJXEajVx7HbpCUOwHAiKGWAZWqxWHDh3CoUOHYLVa5bNpHJmbyqAJ++AZzU0oIy24WNlMdhdkt9cNe714mUifWr1TVGpL0s+Wbr0ww+4WynOSsl2s1SXMry5VASo9qsXzZP16tlZh3eYmd9rtkc4fTYnVjKIC+TQbnOJ9lL2uuckt2+9U/Vzy9aSfz7ImjQZDLA2r1QqTyYS8vDzk5eXBZDIxyCaMGfO0KoQDZzHi9laFHe7InY6FslkLfAVG2YVXBf0ioC06P6yB0euFd1EfWsTT5OGXcb2AqrQauu7oMh4EVXpUNpkBuFBXbkCLPwyEfcLrlNel3j+1EZVoi7+WbHvMTW5Uay9EtlcoDRYuH1mQmZsqoYcPbaJWrblJh77YPhrgCWlglJc/M6mww+01otAfLwO3+PtEC6ig36BDt6g8rCqt5GAPGjGGWBrLli2TT0o6jcZP36WUl/iUbOV6wN8m6l9yoe5kEFDrRC2KMHyt0QCJzE82TfSc7NYr9DlZYq3HRnj8Yai080YWAgAQFoeL/LVsMJZCtL3x0qBGJ2+vyaiNsdZPdakKwZPSIHXVWiR9c43dQUBVCI1omUxs5XqoQh5JyVe+3mCnBY3RBw0e+MIqzFkw4qNENzmGGE1qI++rEcpjqtJqSZnNuzybS3AfLqUcWJH9esN9Qfmk0em/lLqVVlGEQqig3yAu13lhVMsXTEI8sMPQgr5F8rKorEyZZB/TE45VsDsWUUmE0XdRPo1o5BhiaRw5ckQ+Kek0Gg8uXOoHVIUjvYAKgp3xclj8T/TJf5TGa72jE4QnYVsMMKwZydYktvCcXq+0TNk5RqFMNA4YYmk4HA50dHRgcHAQg4OD6OjogMPhkC9G46SxOwioy0bYTyKEX8aS2oiN13pHqf0S+qCBbgT9X1mp10GDIDzp+uoAoKBIWh69oxCq2INJdqxoSmOIZeBwOLBixQqsWLGCATbRGixo8QP6DUkGK9Q7U45mE8LPKH1OhR3OFMtna6zW67rUN+I+pkSN6A4BmuXykYPOEYa+GfZFGiDULbQmL/YhjEIUxdZhg1NWTnSdvoCwSg9j7DgkLtPo9iGsNkreo5FvG1FmDDGa1Fy15bFRd9K+KKAr1ffEGiwwdAahET9nQyG6Uy2frbFab4MnPhpypKP+RBrXREYOio5LdWF35i9MiwZ2eL3VmBNoiZcg2+vQFvngIMzXoVteTmyvQ5s/LDoOOnTv9iEsW6Y88kXq2LZp+3A207YRjdC0kpKSr+QTiYiIlIAtMSIiUiyGGBERKRZDjIiIFIshRkREisUQIyIixWKIERGRYjHEiIhIsRhiRESkWAwxIiJSLIYYEREpFkOMiIgUiyFGlK16J7xed3a/xF5hh9ub5Nf3J4wZdrc35S/9j7sKO9zZHiui68AQIwUTbuAo+XX7GxocY8vWmnjHZSKSYoiR4knuthy5VUr2QSYEYVbLN1hgMJRnvtUJIrciMRhgaZDPIKKxxBCjqaXBAk+IdxUmulkwxDKwWq04dOgQDh06BKvVKp9Nk1CwLwwUFEVuNikvOYruhFzvhNdrhAaI3eDRWS/qz6kX+rViz6l3Sp8fmyZaf/Qml0n6hGytY1z2jPS7xdaZovRobnIn338kWYfkJp1pjl1Uqv1PEF1XknUQXQeGWBpWqxUmkwl5eXnIy8uDyWRikCmAplAF9F+CC4C5SYe+3fFyoyekgTF6oW2wwGDwICgqScbLfyroFwFtBgMMBgsi9z2WMDe54V1eCF9s/S3w9cuXiqiwQ9fXIit7XsfAhwo73Bvm4IL4tQuMCUGmKq1GJdqk+x8LEhucG/Toi5Vjpduf9tiNaP/NsLuN0IQ8KY8l0WgxxNJYtmyZfFLSaTR5mJvcMKrD8LmFS6Wr1iLpw2rsDgKqQmjik1IKnqyDSz4xxgZjqQrBTnEfmQt1a1I8p70OllrRnIZuBKFC4R3ihbJnK9cD/jbpa58MAmqdtKUT8qBc9LqNazwIQgNdPYCKIhQijL6L0bnS7U9/7LLdfzPs7mro4UPLGsYXjT2GGCletBTo9XpRXdoHj2zwhaSctjyb+AIgubgnUVGEQgTRPZKBG5LSnVDGHB0zigqEVpaklJdk38J9QdmUIPrCQGGRGWivQ1dIBf2GLEuR4vVnuf9z1kQCrFwebkRjgyGWxpEjR+STkk6jG0syOlFSrhL6Yaq1F9AiKuPdCLZWL7yS8p9Qxrwe0v1Otv+ZNa6JlAELjEJQxcJsLI6dCkA465Yv0WgwxNJwOBzo6OjA4OAgBgcH0dHRAYfDIV+MJqt6HTQIwjMerYD2S+iLluUyskGnhqz0dj1cuNQ/yhGYFfMwRxXGhdPiI+JCXXkkpKLlyEzHLqv9D+NCa7msH45obDHEMnA4HFixYgVWrFjBAFOai30IoxBFscETNjgTSm6i8tqINMLjD8sGZ5hhb002Oi/xNWyt11NOjPRPqY3SEY4Vdjhlv9ChKq0WLWOGfY0eqvAFnG1PvnxMxmOX/f43rpEPKCEaOwwxmrra69Dmh9Dn4/XC69WhO6EkJgyIiPYvjWTYu6u2HC2S9VdjTt/ZJC0XF+pafYCoD0vXnWU5UR0p88X+IqHRYIl9sTs2b0MhusWDRwCE/R70LYpvn7x/qlDcr7Yc8ETLkVkcu+z3H2hc0wJfWAPjCI8xUSbTSkpKvpJPJCIiUgK2xIiISLEYYkREpFgMMSIiUiyGGBERKRZDjIiIFIshRkREisUQIyIixWKIERGRYjHEiIhIsRhiRESkWAwxIiJSLIYYTW31Tniv+9fTzbC7vXCn+sX3ScTW6oXXnfhL8mOi3hn/AeJMKuxwZ7ss0XVgiJHi2VrFv/Iu/E2lX0pPtn9erzJClWi8McRIuSrscHu9KOtrkd7duDM4ivuDTXIhj+wOzh70lVYntDIb1xhgSHUjy6SEOzhnFfoNFhgMY3VjT6KxwRAjhbLBuUGPvk4DymX30EKDJXHalNMIiyFyj67W6yuWEikZQywDq9WKQ4cO4dChQ7BarfLZdIOYm8qgCfvgaZDPSSHSaktZbpTN92YIBnmJT36H5eTrStW3NoLWkIRwQ0+odbHWmK01cdvNTe7k21rvhNcr3GE6enNNYV50O22wu0XTk/YvCtseX7+8H0w6P3Hfia4PQywNq9UKk8mEvLw85OXlwWQyMcgmBTPmaVUIB5LfRTiRBsY1QFukFNfiD0OzXHQxrrDDvWEOLuyOlupa4CswJoRBlLnJDWOBDy2i8mVM2nW5cDYQhko7Tzrwol4HDYLozjaQxS72IYxCFKUYQGFucqNaeyG+rbt9KFweCaUGCwwG4Q7TwU5hvkW0DarSMqA1cXpMhR1urxGF/ng5t8XfJ1pABf0GHbpFx0lVWsnBHjSmGGJpLFu2TD4p6TS6MfouZRdhQBi+1ng/kau2C0FooIu0SGzlesDfJurrSWzhiGkKVUD/pXiANlhiF/lM63LVdiGomoN5ogu5TadB2O9BY3xS9tovQRwbUjYYSyHZd7TXoSsEaHTJ9kwm1JW2/8tWrocq5JGUbl21Fslzgp2W+H41eOALqzBnAVtjNHYYYqRY2Q/e6MOllBdjM4oKAFVptaTk5l2ukS8Y0+j2Iaw2JimdZbOuRnSHxBdyG3TqMC6czjaQZSqKUCifFlVRhEKooN8gLvd5YVTLF0wu3CdqYSYQ9jXYnS56w+i7KJ9GNLYYYmkcOXJEPinpNJpoLlzqB1SFqYNmpKLlNOmfqBUh1l6HcoMBhs6+SEBIwyzTuhq7g/GSYr0OmgwtnrTuKIQqfAFnUz4/CE/CthhgWJN0z4gUhyGWhsPhQEdHBwYHBzE4OIiOjg44HA75YnQDNHYHAXXZGPSvCIGYVXlNrsEi9HnFSmRZrqvBAx+EkqJNp8nQmknHBudyDYInUwypb7+EPlHZdGxlua9E44whloHD4cCKFSuwYsUKBthk0mBBix/Qb0gyqq/eOaJRcEIgGhNGGDpTrMPWKh+hF5fdulw4GwDmLLBDpx7lgI7IyMJCf0vyQRdApHQJ6SAWAOYmpyj8g+gLj6Q0Gxctq4qPtXTdROOPIUaK5aotj422k/ZBAV0j+Z5YgwWGzmBsmLnX64V3QyG6U65DA2Ps9aoxJ9ASH9yQ5bpcpy8ApXoUZjugQ21M2EePIcl35GQa1xjgCYm314vqwu6EgSfRfryEDwTptNehfLcPEPUBVmv70pQ2icbetJKSkq/kE4lonMWG4vMXMIiuB1tiRDeAecGcDAMyiCgbDDGiCWeDsVSVekAGEWWNIUY0gYSfq8o0IIOIssU+MSIiUiy2xIiISLEYYkREpFgMMSIiUiyGGBERKRZDjIiIFIshRkREisUQIyIixWKIEU1mFXa4R/rDvGOlwg53wo0/R8MMu9sb/7X7G7lPNOUwxOjGilzQvG67cJPIFIRfuhiLC2pq5ia39Jfio3+tqW68ogzCsRP/pb6VDJHSMMRoEggjHLlJZHI26NTyaeMk7EOL5C7ILfAVGMc9QFOK3EV6dD9RJbSAjPBI7ursCcmXm2Aj2icbnGy1URoMMZokVNCXJ28fmJvKoAkFEZTPmBAu1JUb4AmpoF+TvrU46VTMwxxVEJ410juWNa6xZHcPMyIFYIhlYLVacejQIRw6dAhWq1U+m8bIhZM+hNW6JGUuM+ZpVQh2dydMF/pZbLC7hTKZ8GldmB4vnY1NC6rR7UNYJWstRkuhycqOsf4koSURXUZyx+kRLROfJC8Ppm+laKBLOx+x1k7qY5Zm++qdSUrBGVpP2e5T5O7VGiB2k9GU66SbFkMsDavVCpPJhLy8POTl5cFkMjHIxsvFOnSFNCgTXyABoN4IPXzwpCg9qUrLgFahTGZpAGyt1dD3x8tnLf4++VNGp/0S+qBC4R2Rx7GbWsrKjpL+MxX0G3TojpbyOoNQlVbKAiKbZeLMTW4YC0Qlz8407dP2OrT5w9AslwWPWIUd7siv6ic/ZiPbvtFIuU8NFhgMHgQBBDvj7zGRGEMsjWXLlsknJZ1GY6OxOwiVdp7kU71Np0l/361Ql+jOyGYUFQDhvviF3VVrGaM7JwfRF44/spXrAX+baN0u1J0MArLWZLBTVLpr8MAXVmHOAmmgZLNMlKZQBfRfih+PBkvaC7urthyG3T6gtDqxFRXZD1XIg/La+BGWH7ORbN9ojHSfiMQYYjR5NHjggx7GaMmowo4ydRDdaS5o4sCKBomqtHocRuBpUKiK/r8QlsLriMpgyzXSpyCMvouySQmyWSau0e1DWD3CgSaRgRSxMIuV/4T9CHan6yEb2faNxqj2iSiCIZbGkSNH5JOSTqOxIoSQRifEj3nBHMDvGdkghAZLpCRWCKPXO3ZhVlGEQkgDNVrikv6N86CJaCB19kG/IVn/VRrtdSg3eBBUiT4oTAbXs09002OIpeFwONDR0YHBwUEMDg6io6MDDodDvhiNpQYPfAVlsFfYYCztQ5eozDUSrtrySH9KNgMbMjHDvkYvClQXLvUjFrY3RINF6IcbcWlPKIsWFpnHbj9UhZC0QSuKUCh+nK1R7xPdzBhiGTgcDqxYsQIrVqxggE0IF84GgDlrylA40lYYzLC3ykfKRQkj5uR9QhlV2OH2CoNFxP1Gjd1BQG2UjparsMM50vWPkK11BC3LZNtTb4ReFcaF08K+REt54uNibnJm3xJq6EYQ4gE5QuDHKq9ZSL9P4tAlSsQQo0nHVduFPhViF9oRKdCjOtZPZQQ6RziiTSV+vhfe6AhE2Xet0GCBoTMYG/otLFuI7lG2HLOniZRJvfB6qzEn0CIJV7nChH47wGMojw/caK9DuWjgh9frRbW2D2ezHgzTCEtntB/SC6+3EmgVRhRmL90+ifs5OcSeEk0rKSn5Sj6RiIhICdgSIyIixWKIERGRYjHEiIhIsRhiRESkWAwxIiJSLIYYEREpFkOMiIgUiyFGRESKxRAjIiLFYogREZFiMcSIiEixGGJEo2KG3e2FtzX176/fEBV2uPlDuXQTYYjRFCDcZkV+4ba1Cr+MLp9+Y6UJv3pnihtCjvI2MkQ3AYYYTUnmJjeM6jB8u0d4K5akkoWkC3XlSW7RkpELZwNhoKAo4b5nNp0GQJIbQlYUoRDxe4ClFblL8vXv81hIdtyIxhZDjKaeeieqSwHfbtF9syYR1+kLCKvmYJ6kxWWDTg2Ew2GotPMkAWdeMAeq8IUR3OOL6ObBEMvAarXi0KFDOHToEKxWq3w2TTYVdriXaxDslAeYDc4kpTpbq7i0J5T63E02oeTn9cLZ7oTXa4QGiN0AU2hZRJeNx020fBn9S9kCab+EPnmLq6IIhQii62QfoCqEJjbDjHlaFcKBs4i2w8xN7tSvU2GHW7KfkfJlbPns5kWPi/S15HdgFlpaSefXpzpuRGOLIZaG1WqFyWRCXl4e8vLyYDKZGGSTWZEd7g169I30bs4yqtIyoNUAg8EAS4UFBoNwp+JgZ2RaknWbm9wwFvjQYhCWMXSmu7dxI7pDgKpQFFUL5kAV6kZjQzeC0EAXu+BrUKgC+i4JEWZucqNaeyH+Ort9KFyeOiBsrdXQ93uEZQ0GtPj7spoHAFAbUYm2yPwW+MIaGEV9eeYmHfp2R7bDYIAnpIHRbRdakQ3ZHTei68UQS2PZsmXySUmn0eSgKdVDFfbBc70Xy1DXiMuQmkIV0H8p1lpCgyXtRbuxOwiodZGWS6S11ReMBZxGFwmLeh00CKK7AQBsMJYCvta6+Ou016FLvLyEGUUFiKxX4Kq1RPYt3byIsA9ttdFXcqHupHibE5dv7A7KWpFE448hRlNGsNODoEqP6mQj/0ZAfGHPVqPbh7DamGJ0YRLiFlfFPMxRxQduNHYHYwM/bDoNEOpGI6IlRxX0G8QlPC+MavnKo4TgUZVWJykFppsXIQ7lFCTlxuWML5p4DLE0jhw5Ip+UdBpNFo2wGDwIqo3Jh7CPp8ioQENnXyRkMoWZqMV1R6F04MbFvsjAj8TWEhCEJ1pKFP+lGiXZYImUCgthlPdbpZuXkdAfJiltpi2hEo0PhlgaDocDHR0dGBwcxODgIDo6OuBwOOSL0aTSCMtuoVWU+L0qFQrvED8WQmJMNVgi/UdJhsrLBPuEofZ2nUYycAPtZ3EhrMKccqOkhSYMCBH3l2XPVVse6aNKfH66eSlFypyeclFpk+gGYIhl4HA4sGLFCqxYsYIBphTtdSjvFEpl8SCLtHwWRQYeADA3VUKvEj0vpSD6wkBhUepQsrWOpBUjiA61n1MQH7gRmYOzgTBUao1saH1kH5ZLX8vc5EzR6jPD3hrfX6l087JwsQ9hFKIo9ro2OBPKiZmPG9H1YojR1NRgQYs/LPT5REqLjWsifWaRPpxKtMETkj8xGXH/UaqRgJpISc4Lr7cacwItKI8Nikgh0uJSqaIDN+Jcl4SRgpIWGoDGNZFRgKI+serC7tQDUQri++v1GgHxyM108zJpr0ObH6L+OR26E8qJ2Rw3ouszraSk5Cv5RCIiIiVgS4yIiBSLIUZERIrFECMiIsViiBERkWIxxIiISLEYYkREpFgMMSIiUiyGGBERKRZDjIiIFIshRkREisUQIyIixWKI0cSrsMOd9Q/CmmF3e5PcVmUU6p0jvGeWwlXY4U64r5lwPL1e7+juuZZ0nWMpsn2j2Ta6KTHEaAwIN0hMGRA3Q3hEgll8x+XJ+MvtttZq6Ps96W+kqTSZPhTVO7O4SSkpFUOMxpAGxmw+QUfugpz1bT8UIwzfbtHdljuD0CxPc3GdcMnuFD1Bkn6QET78SI+PC3XlIwzY9rO4EI7cJTsJm04DhLpS366GFI0hRmMm6BfuqDx5Lto3WIMFnhBvCjn+hJuIQq1L0tq3QacGgt0jCEVSFIZYBlarFYcOHcKhQ4dgtVrls0nsUh3a/OGEOw8nSNqvEi1JRv/k8wFbq2i+O/GuxOYmt7Scl7FVKH9N+XaL+o9SbFN6QstH/Njulrc8Itst2h9bq7Dt0v2Rb1u0dZP+mMRU2OH2VkOvguwmlen3UboNbtjvEK0zRr4O6T7aWr3wLteIbhzqhK3eCa/XCA0AzXLxc2R9oNFzpT5ark1yHAC4arsQhAY6+Qeoeh00SLzpKE0dDLE0rFYrTCYT8vLykJeXB5PJxCDLwFXbBl84y7JiVIUdbq8Rhf6WWCmuxS/c2ThKVVoNXXe0VCfcoblSNNjD1upFdWkfPNFSnqEFvgJj2gu7uUmHPlH5zxPSwCgJE1H/UZJtysTcVAm9KoiuTHd4TkZtRCXa4vsiO6bmJje8ywsl5UtPvx7VKS7yQgm3Bb4wEI4cZ0tD+n00N7llx7QLhcv1UElWbIPTK12HYbcPhcvjQdS4RiitAsHIuixobLAI7yOAYKfwvNTlZRX0i4C26HPlswEAjegOJZYUhVJid4rn0FTAEEtj2bJl8klJp5GYC3WtIysr2sr1UIU8KBdd7F21FmkfRsgjusg1wuMPQ6WdJwROhR1l6jB8u8UXuMh2qOZgXorWk/w1GruDgKoQGiBp/5F8+UQq6DfEWyNCCKW66GYQ9qEtdjxcqDsZFJXLbDCWqhDsLJdu/xpP8tZISun2Mfoa4u1vhGW3D+HYY8DcVAZN2IcWcR9Wu9Aij70/YyB4sg6ZPgo0douPESKlxDB87lG9A6QQDDEae5GLWMayIhC7kGbqs0g7GOGOQqjCF3BWHjDtZ3EhrEJh0hKYQFIuWy7El0AIDqH0ls1+QDKwo8Ufhqq0coTlR5H+S6kv2hVFKExaIhNaI9n3waXZx5SvIaUpVCEcOJuwra7TFxCOfSC4XmH0XZRPS6KhWxri9Tpokp0XNKUwxNI4cuSIfFLSaZRoVGXFCSX0h1VrL6AlWgbrlAVlgyUSSIXxvhzpEim5asvhCamgL8/2GTfIdezj5CMtKdp0mqQBS1MLQywNh8OBjo4ODA4OYnBwEB0dHXA4HPLFKClRWbGoT1KCknLhUn9iX8aIXOxLXjasmIc5qhSf4iMd/p7yzGUqV215pP9mJKU6oNGdvKwqbylpCqW9TBm1X0Jf0m0RRuL1Xcq0R4mS72OS17ijUNInFuxLXjY0L5gDVbgPadrP40I45jrYIqXEC6dHfixIWRhiGTgcDqxYsQIrVqxggI1UtKxYKh8MIBW92It/lcPc5My+FNdeh66QCvoN4laEGfY1eqhSfT/oYh/CKERR7DVscErKiWbYW1MPCslKQllVGAquKjXGt7PeCaNa/KRsCH2CmuXSkYS2ViM0YR88GUqAcWn2sb0OXSHISsLyYxQZFajSo1rc4q6wo7JUJe3HSjjeABBEXzgx1K9L+1lcCGuga9VBk+q9pymFIUbjSigryqfKtNehfLcPiAz99nq9qNb2jagvo3FNZHRhbJh3NeYEWlJ/aba9Dm1+iAZi6NAtLycW6FEdW58R6Ew3gi656NDvaFk1VmaNrlfXjRZ/pgOUyFVbjhbJ9nthhAeGLFqWEmn2MfGY6tAtG9gBNMJi8CCoNsb7FjfMwYXdsmMV+6AhLlmK++QSv3owOsIHBY1ak7GflaaGaSUlJV/JJxIRESkBW2JERKRYDDEiIlIshhgRESkWQ4yIiBSLIUZERIrFECMiIsViiBERkWIxxIiISLEYYkREpFgMMSIiUiyGGBERKRZDjG4OFXa4vdJffZ/azLC7vfBmeT83W2v2yxJNJgwxmhIkd2iO/Sn0Bo8VdrgT9mWsfuWdaGphiJHCJblDc+TPE5Lfv0pJwvDtFu1PZxCa5SMJMhfqyg2pb0Uzkeqdyv1AQZMeQ4wUzAy724hCf0vS+2g1rimfOjdFbLDAExrjG0gSTQEMsQysVisOHTqEQ4cOwWq1ymfTjVRvhF4VRFetPL6yJC/bSfqEhD4ld5NZ6C+KLuMW3wk5m2WSvI58flbMKCqQTxNaocnXG982sYSyq6wfTDo/SetJvi+yOzq7vW7Y66PLOPFOqxfe5RoA0ZtrJlkn0XVgiKVhtVphMpmQl5eHvLw8mEwmBtkkYtNpgFA3RlUwq7DDHbkDsVCya4GvwJhwUVeVVkPXHV3Gg6BKj0pZMGRaxlZeiK5YmbMFPuhRPcJBFOamSllg2+CM3Ik5Vj7t16M6TUDaWr2oLu2DJ7YtHkjuZa02ohJt8e0Mx+9IDWR7zFTQLwLaDAYYDBb8aI1QCgWCkde1jO79IkqBIZbGsmXL5JOSTqMbJ9wnuQwntDRS9SHZyvWAv01UbnSh7mQQUOukLYWQB5aG6INGePxhqLTzpEGRYZnGNeILtwtnA2GgoChl2AhU0G+I74cQLvH1mJvKoJG8LtDo9iGsmoN5yfoBK+woU4fh2y3elkZYxH1mYR/aYiGZeDyyPWbBk4mlXaLxwhAjRVMVaiSPXbXlyVsZEkJpTlVaLS2tLZeuC0lCMplslhGXG6tLVfLZScQHdrT4w1CVVkq+HqApVAFqo3T7N+iRcs13FEIVvoCz6foI+y+lCZ9sj1kYfRdlk4jGEUMsjSNHjsgnJZ1GN0awL5sWTWpBUSku/jfG5a5IH5IRnthrtPjD8qXSctWWwxNSQV8uLUGG/S1Jtn98B7NMyDEjGgGGWBoOhwMdHR0YHBzE4OAgOjo64HA45IvRDeKq7UJQpYcxRckwNRcu9QMa3cj6pUbDvGAOVGEfWq5zqHuj24ew2hgrjwb7kpQ107nYl7rUmJWJO2ZEI8EQy8DhcGDFihVYsWIFA2zSaYQl8v0p+Si8TBq7g4AoFACh1eQc4XoycV3qA1SFiBXdKuyozKqcKNNehzZ/GJrlwug+1+kLCCcMMrHBmWrASHsdukIq6DeIRwemWT6JUR+zi30IQ8nf2aPJjCFGytZggcHQggtaWV+N15gw8EGiwRL7AnG8T6kQ3aMdrp9KgwWeUHR4uRfeNUDXCMuJUa7aLgQRGTHYXofy3T5A0kdVhj536hZf4xqDdFu8RqA79fIJRnvMYgHq5RB7GnPTSkpKvpJPJCIiUgK2xIiISLEYYkREpFgMMSIiUiyGGBERKRZDjIiIFIshRkREisUQIyIixWKIERGRYjHEiIhIsRhiRESkWAwxIiJSLIYYTUq2Vq/stvfKY2v1wuu2Z3+7FCIaMf4AMN0wtlYvjGrptGCnAZaGyDx4YLjO+3DdSLZWL4wFPrSU16W5Y/L1ssHpNcZv9RIThm/36G6Qmex9CftbUJ7p1+qJbgC2xGjiRe52XNYnuzNxZxCFRUpst5hhdyfe06xxjQGGcQ2wuIQ7Lnf2Cbc+GW1rNhS/E7UhcssXyX3EiCYJhhhNMBucG/To6zQkfrJvsCROo9FpsMCwW3o36FFrr0NXCAr9gEFTHUMsA6vVikOHDuHQoUOwWq3y2TRC5qYyaMI+eFLdrDINc5NbcuNLycW53inccLHeGV8m0h8leV6yPqpIyzC2jLj1UmGH2+uGvcIGp2iZWKurwg63txp6FaCK3KAyOk/arxdvrdlaRa+VsD3S17mum0hGwkeji67BBqfXDbvsDsuZ+x/NKCqQPra7Zcc/epxl+yN9z9yw10ePp2i+/LVjx1w8UXZcEo4b3awYYmlYrVaYTCbk5eUhLy8PJpOJQXZdzJinVSEcODviEpu5yY1q7QW0iEpchcvlF1INjLruSBnMg6BKj2qvF9WFXZJpleKyX4Ud7g1zcGF3tBTXAl+BUXZhVUG/QYduUdlTVVopXGTb61BuaIEvLPQbGQxJWpgiqtJq6Lqjr5W4PeYmHfpi2xK5E/N1XLCDfWGgoGjUzwcAc1Ml9PChLc1+JWNucqO6tA+eWJmzC4XL9VDJF8xI6PeDqGTq6dej+jqOC00dDLE0li1bJp+UdBqNTN+lkV0MARuMpYCvVdS/lNDKAIAgPLGBII3w+MNJp6m082IXP1u5HvC3iQZAuFB3MgiodZIWULDTgtgQkwYPfGEV5iwYxSU05IEl1gpN3B5XrUUyGKOxOwioCpMM3MiO61KffFJ21MZYq6e6VIXgyZH27dlgLFVJjxsaYdntQ1iyXGbmpjJoJMcNaHT7EFbNwTxZq5JuPgwxmnAj7lupKEIhVMJABVFJST6CLqlwH4LyaTFCmSxaBoz9LZdHRhh9F2WTRincl3proiQluIRtGRlzUaF8UnbEAzsMLehblKnkKFNRhEIE0T2KsrGcplAlCVWv1wvvhtG06GgqYoilceTIEfmkpNMoWy5c6gdUhaO5MAdFZSnR3xgMwU8Y2WcwwGAQtyAmitDvIymbdmYOvXQ0haMr30olb51OpGipVvo3uq8Q0NTCEEvD4XCgo6MDg4ODGBwcREdHBxwOh3wxGoHG7iCgLksYXJBW+yX0QQPd9Y6ySyCEqrQkeQPV66BBEJ6xGpZf74RRHUSXpC9LhcI7RA8TBm1kT96i1hTK20ZJ3rM7ChNbUPI+O9kywT5pyZVIjCGWgcPhwIoVK7BixQoG2FhosKDFD+g3yAdlCBdd+XetBI3oDgGa5dKReuYm58jCMAkhVGXD0CvscCbdjlSup4UpcrEPYRSiKLZPNjhHWU60tXrhXV4I325pn1R3CNAsig+IMDdVQp+QKnJm2BdpgFB3ZF0unA2EoSo1xt+Peqe0vBvts5S8Z4n74zp9AWGVHsbY8U+9jGRADmxwjqS8SVMWQ4wmnKu2PDa6UNoXBVmrIa5xTWSknmj56sLu6y8nNVhg6AxCI96WDYXoTrEdqTS6he9kecXD70eqvQ5tkYAXtkWH7izLiZLt90Z+7SRJua1xTXzUptfrRSXa4AlJlwGkAzu83mrMCbRISreu2jb4wqL3Q9eNFr90yEbie6ZDt3xgR3sd2vxh0fYnX6Y88oXr+DaVoc898QVfmnz4s1NENHFiX2lIDFii0WBLjIiIFIshRkREisUQIyIixWKfGBERKRZbYkREpFgMMSIiUiyGGBERKRZDjIiIFIshRkREisUQIyIixWKIERGRYjHEiIhIsRhiRESkWAwxIiJSLIYYEREpFkOMiIgUiyFGRESKxRAjIiLFYogREZFiMcSIiEixGGJERKRYDDEiIlIshhgRESkWQ4yIiBSLIUZERIrFECMiIsViiBERkWIxxIiISLEYYkREpFgMMSIiUiyGGBERKRZDjIiIFIshRkREisUQIyIixWKIERGRYjHEiIhIsRhiRESkWAwxIiJSLIYYEREpFkOMiIgUiyFGRESKxRAjIiLFYogREZFiMcSIiEixGGJERKRYDDEiIlIshhgRESkWQ4yIiBSLIUZERIrFECMiIsViiBERkWIxxIiISLEYYkREpFgMMSIiUiyGGBERKRZDjIiIFIshRkREisUQIyIixWKIERGRYjHEiIhIsRhiRESkWAwxIiJSLIYYEREpFkOMiIgUiyFGRESKxRAjIiLFYogREZFiMcSIiEixGGJERKRYDDEiIlIshhgRESkWQ4yIiBSLIUZERIrFECMiIsViiBERkWIxxIiISLEYYkREpFj/f5OOEyK7ix92AAAAAElFTkSuQmCC;" vertex="1" parent="1">
                    <mxGeometry x="220" y="100" width="433" height="650" as="geometry"/>
                </mxCell>
                <mxCell id="10" style="edgeStyle=none;html=1;entryX=-0.002;entryY=0.095;entryDx=0;entryDy=0;entryPerimeter=0;" edge="1" parent="1" source="9" target="8">
                    <mxGeometry relative="1" as="geometry"/>
                </mxCell>
                <mxCell id="9" value="cakeFeature" style="rounded=1;whiteSpace=wrap;html=1;" vertex="1" parent="1">
                    <mxGeometry x="30" y="130" width="120" height="60" as="geometry"/>
                </mxCell>
                <mxCell id="12" style="edgeStyle=none;html=1;entryX=-0.002;entryY=0.308;entryDx=0;entryDy=0;entryPerimeter=0;" edge="1" parent="1" source="11" target="8">
                    <mxGeometry relative="1" as="geometry"/>
                </mxCell>
                <mxCell id="11" value="iceCreamFeature" style="rounded=1;whiteSpace=wrap;html=1;" vertex="1" parent="1">
                    <mxGeometry x="30" y="270" width="120" height="60" as="geometry"/>
                </mxCell>
                <mxCell id="14" style="edgeStyle=none;html=1;entryX=0.002;entryY=0.678;entryDx=0;entryDy=0;entryPerimeter=0;" edge="1" parent="1" source="13" target="8">
                    <mxGeometry relative="1" as="geometry"/>
                </mxCell>
                <mxCell id="13" value="usersFeature" style="rounded=1;whiteSpace=wrap;html=1;" vertex="1" parent="1">
                    <mxGeometry x="30" y="510" width="120" height="60" as="geometry"/>
                </mxCell>
                <mxCell id="15" value="great! let's do project setup&lt;br&gt;&lt;br&gt;run the command - npm init vite@latest react-rtk-demo&lt;br&gt;select react -&amp;gt; javascript&lt;br&gt;&lt;br&gt;next let's install rtk aka reduxjs/toolkit&lt;br&gt;&lt;br&gt;command for that is&lt;br&gt;&lt;br&gt;npm install react-redux axios @reduxjs/toolkit&lt;br&gt;&lt;br&gt;in my local i have already setup the project" style="text;html=1;strokeColor=none;fillColor=none;align=center;verticalAlign=middle;whiteSpace=wrap;rounded=0;" vertex="1" parent="1">
                    <mxGeometry x="81" y="800" width="460" height="170" as="geometry"/>
                </mxCell>
                <mxCell id="16" value="GREAT, stay tuned for next part" style="text;html=1;strokeColor=none;fillColor=none;align=center;verticalAlign=middle;whiteSpace=wrap;rounded=0;" vertex="1" parent="1">
                    <mxGeometry x="110" y="1030" width="220" height="30" as="geometry"/>
                </mxCell>
            </root>
        </mxGraphModel>
    </diagram>
</mxfile>